<svg id="Capa_1" enable-background="new 0 0 512 512" height="512" viewBox="0 0 512 512" width="512" xmlns="http://www.w3.org/2000/svg"><g><path d="m248.319 409.045h-216.737c-9.143 0-16.582-7.438-16.582-16.582v-273.453h386.362v136.99c0 4.142 3.358 7.5 7.5 7.5s7.5-3.358 7.5-7.5v-184.626c0-17.414-14.167-31.582-31.582-31.582h-8.555v-8.555c0-12.988-10.566-23.555-23.554-23.555s-23.555 10.566-23.555 23.555v8.555h-217.262c-4.142 0-7.5 3.358-7.5 7.5s3.358 7.5 7.5 7.5h217.263v8.554c0 12.988 10.566 23.555 23.555 23.555 12.988 0 23.554-10.566 23.554-23.555v-8.554h8.555c9.143 0 16.582 7.438 16.582 16.582v32.636h-386.363v-32.636c0-9.143 7.438-16.582 16.582-16.582h8.555v8.554c0 12.988 10.566 23.555 23.555 23.555 12.988 0 23.554-10.566 23.554-23.555v-32.109c0-12.988-10.566-23.555-23.555-23.555-12.988 0-23.554 10.566-23.554 23.555v8.555h-8.555c-17.415 0-31.582 14.168-31.582 31.582v321.089c0 17.415 14.167 31.582 31.582 31.582h216.738c4.142 0 7.5-3.358 7.5-7.5s-3.359-7.5-7.501-7.5zm104.352-337.144c-4.717 0-8.555-3.837-8.555-8.555v-32.109c0-4.717 3.837-8.555 8.555-8.555 4.717 0 8.554 3.837 8.554 8.555v32.109c.001 4.718-3.837 8.555-8.554 8.555zm-297.535-40.664c0-4.717 3.837-8.555 8.555-8.555 4.717 0 8.554 3.837 8.554 8.555v32.109c0 4.717-3.837 8.555-8.554 8.555-4.717 0-8.554-3.837-8.554-8.555v-32.109z"/><path d="m509.803 300.751c2.173-2.173 2.801-5.453 1.583-8.275s-4.051-4.626-7.107-4.525l-15.441.455.455-15.442c.091-3.072-1.703-5.889-4.525-7.107-2.821-1.218-6.101-.591-8.275 1.583l-28.784 28.784c-.757.757-1.429 1.566-2.061 2.395-18.111-11.798-38.987-18.01-60.867-18.01-61.676 0-111.854 50.178-111.854 111.854 0 61.677 50.178 111.854 111.854 111.854s111.854-50.178 111.854-111.854c0-21.868-6.209-42.739-17.999-60.847.832-.636 1.63-1.327 2.384-2.081zm-51.488 6.079 15.428-15.428-.133 4.514c-.061 2.065.732 4.063 2.193 5.524 1.46 1.46 3.446 2.264 5.524 2.193l4.513-.133-15.428 15.428c-1.616 1.616-3.764 2.505-6.049 2.505s-4.433-.89-6.049-2.506c-3.335-3.335-3.335-8.761.001-12.097zm-73.535 182.487c-53.405 0-96.854-43.449-96.854-96.854s43.449-96.854 96.854-96.854c20.32 0 39.637 6.184 56.07 17.888.088 3.387.899 6.753 2.436 9.854l-30.549 30.549c-8.168-5.934-17.815-9.074-27.956-9.074-26.267 0-47.636 21.37-47.636 47.636s21.37 47.636 47.636 47.636c22.211 0 41.78-15.727 46.531-37.394.887-4.046-1.674-8.045-5.72-8.933-4.045-.886-8.045 1.674-8.933 5.72-3.253 14.837-16.66 25.606-31.878 25.606-17.996 0-32.636-14.641-32.636-32.636s14.641-32.636 32.636-32.636c6.141 0 12.013 1.683 17.155 4.875l-22.458 22.458c-2.929 2.929-2.929 7.678 0 10.606 1.464 1.465 3.384 2.197 5.303 2.197s3.839-.732 5.303-2.197l45.465-45.465c9.032 11.405 13.977 25.515 13.977 40.162 0 35.701-29.044 64.745-64.745 64.745s-64.745-29.044-64.745-64.745 29.044-64.745 64.745-64.745c6.238 0 12.404.884 18.327 2.628 3.973 1.171 8.143-1.102 9.313-5.076 1.17-3.973-1.102-8.143-5.076-9.313-7.299-2.15-14.891-3.24-22.564-3.24-43.972 0-79.745 35.773-79.745 79.745s35.773 79.745 79.745 79.745 79.745-35.773 79.745-79.745c0-18.625-6.487-36.55-18.31-50.828l7.66-7.66c3.044 1.517 6.402 2.357 9.889 2.444 11.692 16.427 17.871 35.739 17.871 56.044-.002 53.409-43.45 96.857-96.856 96.857z"/><path d="m255.817 183.755v-16.055c0-8.562-6.965-15.527-15.527-15.527h-64.218c-8.562 0-15.527 6.965-15.527 15.527v16.055c0 8.562 6.965 15.527 15.527 15.527h64.218c8.562 0 15.527-6.965 15.527-15.527zm-15 0c0 .291-.236.527-.527.527h-64.218c-.291 0-.527-.237-.527-.527v-16.055c0-.291.236-.527.527-.527h64.218c.291 0 .527.236.527.527z"/><path d="m368.199 183.755v-16.055c0-8.562-6.965-15.527-15.527-15.527h-64.218c-8.562 0-15.527 6.965-15.527 15.527v16.055c0 8.562 6.965 15.527 15.527 15.527h64.218c8.561 0 15.527-6.965 15.527-15.527zm-15 0c0 .291-.236.527-.527.527h-64.218c-.291 0-.527-.237-.527-.527v-16.055c0-.291.236-.527.527-.527h64.218c.291 0 .527.236.527.527z"/><path d="m143.436 183.755v-16.055c0-8.562-6.965-15.527-15.527-15.527h-64.218c-8.562 0-15.527 6.965-15.527 15.527v16.055c0 8.562 6.965 15.527 15.527 15.527h64.218c8.562 0 15.527-6.965 15.527-15.527zm-15 0c0 .291-.236.527-.527.527h-64.218c-.291 0-.527-.237-.527-.527v-16.055c0-.291.236-.527.527-.527h64.218c.291 0 .527.236.527.527z"/><path d="m127.909 216.391h-64.218c-4.142 0-7.5 3.358-7.5 7.5s3.358 7.5 7.5 7.5h64.218c4.142 0 7.5-3.358 7.5-7.5s-3.358-7.5-7.5-7.5z"/><path d="m127.909 248.5h-64.218c-4.142 0-7.5 3.358-7.5 7.5s3.358 7.5 7.5 7.5h64.218c4.142 0 7.5-3.358 7.5-7.5s-3.358-7.5-7.5-7.5z"/><path d="m127.909 280.609h-64.218c-4.142 0-7.5 3.358-7.5 7.5s3.358 7.5 7.5 7.5h64.218c4.142 0 7.5-3.358 7.5-7.5s-3.358-7.5-7.5-7.5z"/><path d="m240.29 216.391h-64.218c-4.142 0-7.5 3.358-7.5 7.5s3.358 7.5 7.5 7.5h64.218c4.142 0 7.5-3.358 7.5-7.5s-3.358-7.5-7.5-7.5z"/><path d="m240.29 248.5h-64.218c-4.142 0-7.5 3.358-7.5 7.5s3.358 7.5 7.5 7.5h64.218c4.142 0 7.5-3.358 7.5-7.5s-3.358-7.5-7.5-7.5z"/><path d="m240.29 280.609h-64.218c-4.142 0-7.5 3.358-7.5 7.5s3.358 7.5 7.5 7.5h64.218c4.142 0 7.5-3.358 7.5-7.5s-3.358-7.5-7.5-7.5z"/><path d="m240.29 312.718h-64.218c-4.142 0-7.5 3.358-7.5 7.5s3.358 7.5 7.5 7.5h64.218c4.142 0 7.5-3.358 7.5-7.5s-3.358-7.5-7.5-7.5z"/><path d="m240.29 344.827h-64.218c-4.142 0-7.5 3.358-7.5 7.5s3.358 7.5 7.5 7.5h64.218c4.142 0 7.5-3.358 7.5-7.5s-3.358-7.5-7.5-7.5z"/><path d="m352.671 216.391h-64.218c-4.142 0-7.5 3.358-7.5 7.5s3.358 7.5 7.5 7.5h64.218c4.142 0 7.5-3.358 7.5-7.5s-3.358-7.5-7.5-7.5z"/><path d="m352.671 248.5h-64.218c-4.142 0-7.5 3.358-7.5 7.5s3.358 7.5 7.5 7.5h64.218c4.142 0 7.5-3.358 7.5-7.5s-3.358-7.5-7.5-7.5z"/></g></svg>