<svg id="Capa_1" enable-background="new 0 0 511.998 511.998" height="512" viewBox="0 0 511.998 511.998" width="512" xmlns="http://www.w3.org/2000/svg"><path d="m315.245 199.391c-5.852-5.854-15.356-5.857-21.213 0l-10.606 10.606-42.427-42.426 10.606-10.607c5.858-5.858 5.858-15.355 0-21.213l-42.427-42.426c-5.857-5.858-15.355-5.858-21.213 0l-21.213 21.213c-29.243 29.242-29.243 76.824 0 106.066l63.64 63.64c29.238 29.238 76.819 29.247 106.065 0l21.214-21.213c5.854-5.854 5.858-15.356 0-21.213zm0 63.64c-17.544 17.544-46.094 17.546-63.64 0l-63.64-63.64c-17.545-17.546-17.545-46.094 0-63.64l10.606-10.606 21.214 21.213-10.606 10.607c-5.858 5.858-5.858 15.355 0 21.213l63.64 63.64c5.854 5.855 15.357 5.857 21.213 0l10.606-10.606 21.213 21.213z"/><path d="m450.097 194.998c0-106.996-87.039-194.471-194.024-194.998-.051 0-.098 0-.148 0-106.986.527-194.025 88.002-194.025 194.998 0 54.392 29.386 121.781 87.341 200.295 26.483 35.878 53.559 66.617 72.24 86.705h-55.482c-8.284 0-15 6.716-15 15s6.716 15 15 15h180c8.284 0 15-6.716 15-15s-6.716-15-15-15h-55.482c18.681-20.087 45.756-50.827 72.24-86.705 57.955-78.514 87.34-145.903 87.34-200.295zm-194.098 279.815c-16.508-17.044-49.978-53.112-82.621-97.335-53.303-72.213-81.478-135.313-81.478-182.48 0-90.513 73.604-164.516 164.099-164.998 90.495.482 164.099 74.485 164.099 164.998 0 47.167-28.175 110.267-81.478 182.479-32.644 44.223-66.113 80.291-82.621 97.336z"/></svg>